<svg xmlns="http://www.w3.org/2000/svg" width="100" height="71.321" viewBox="0 0 100 71.321">
  <path id="_2203_w039_n003_145_businessdoodle_p1_145" data-name="2203_w039_n003_145_businessdoodle_p1_145" d="M337.733,308.378c-8.6,2.475-64.449,22.593-66.562,23.977-3.445,2.258-3.754,5.763-1.163,13.2,2.075,5.961,2.633,6.721,5.635,7.674,4.013,1.275,4.76,3.768,2.006,6.7l-2,2.128,2.374,6.983c1.306,3.84,2.864,7.572,3.463,8.292,1.266,1.526,6.057,1.711,10.022.385,1.522-.509,18.39-2.02,37.481-3.358s35.48-2.843,36.418-3.346c2.481-1.328,2.886-3.051,2.883-12.267,0-8.087-1.5-28.218-2.394-32.289-.549-2.484-2.355-3.345-8.565-4.079l-4.755-.563-2.408-6.593c-3.033-8.3-4.522-9.123-12.437-6.845m-7.163,4.235c-22.39,7.822-33.457,11.875-34.178,12.518-.413.368,2.312,9.443,6.055,20.166s7.031,20.249,7.308,21.168,1.03,1.671,1.675,1.671c3.186,0,45.088-15.518,46.525-17.229,1.5-1.786,1.484-2.308-.237-8.335-3.378-11.828-10.661-31.249-12.171-32.456-2.186-1.748-3.415-1.542-14.977,2.5m1.075,11.591c-.319.788-2.268,7.235-4.33,14.325-3.387,11.643-3.953,14.69-2.45,13.187,1-1,8.2-26.718,7.783-27.817-.285-.757-.613-.657-1,.306m22.324.768c0,.421,1.5,5.234,3.343,10.693,4,11.875,4.238,15.606,1.127,17.644-1.219.8-14.764,5.815-30.1,11.149s-27.766,9.816-27.619,9.961,14.375-.727,31.622-1.939c25.98-1.825,31.629-2.476,32.939-3.792,1.293-1.3,1.537-3.28,1.335-10.86-.47-17.651-2.04-31.128-3.778-32.431s-8.869-1.654-8.869-.426m-72.107,4.878c-12.161,4.579-13.095,5.859-10.508,14.4,1.012,3.345,2.448,6.14,3.287,6.4,6.387,1.991,8.218,5.467,5.1,9.68-1.83,2.475-1.837,2.693-.223,7.438,2.6,7.653,3.544,8.962,6.433,8.934,4.485-.043,22.687-7.067,22.352-8.624-.163-.758-3.3-9.974-6.961-20.479s-6.85-19.638-7.075-20.3c-.587-1.71-1.748-1.472-12.408,2.541m15.485-1.81a4.891,4.891,0,0,0,1.506,2.544c.629.389.764,0,.362-1.049a9.571,9.571,0,0,1-.64-2.544.874.874,0,0,0-.865-.877c-.477,0-.64.866-.363,1.925m19.92.53a4.991,4.991,0,0,0-1.5,2.653c0,2.011,2.91,5.4,4.639,5.4,3.909,0,5.335-5.142,2.21-7.97-2.18-1.973-3.435-1.992-5.348-.08m.755,1.842c-.841,2.193.339,4.3,2.41,4.3,2.231,0,3.038-1.764,1.858-4.059-1.053-2.048-3.52-2.186-4.267-.239m-34.556,5.394c-2.8,1.074-4.911,2.123-4.7,2.331.439.439,12.171-3.41,12.171-3.993,0-.8-2.533-.235-7.469,1.662m3.828,3.376c-2.265.8-3.92,1.657-3.675,1.9.686.686,8.271-1.795,8.271-2.7,0-.442-.108-.77-.239-.729s-2.093.731-4.357,1.532m46.809.494c-2.98,2.98.555,9.206,4.514,7.949,2.781-.883,3.593-4.876,1.469-7.223-1.923-2.124-4.3-2.412-5.982-.726m.932,3.315c.224,1.962.833,2.7,2.22,2.7,2.94,0,2.655-4.669-.309-5.09-1.93-.274-2.18.038-1.91,2.388m-47.921,1.4c-2.847,1.221-3.366,1.653-1.538,1.282,3.485-.707,9.184-3.173,7.268-3.145a24.784,24.784,0,0,0-5.73,1.863m68.34,3.266c-.36,1.916-.412,3.727-.115,4.024s.545-.5.553-1.769c.012-1.868.2-2.035.985-.876.708,1.046.8.66.328-1.433-.88-3.932-1-3.928-1.752.053m-66.908.955c-3.152,1.222-5.339,2.246-4.859,2.278,1.785.116,11.067-3.187,11.067-3.939,0-.429-.108-.731-.239-.67s-2.817,1.11-5.969,2.33m2.567,3.942c-2.265.8-3.95,1.625-3.744,1.832.435.436,9.295-2.473,9.295-3.051,0-.6-1.087-.359-5.551,1.22m-.418,4.859c-2.5.83-4.536,1.858-4.536,2.283s2.041-.019,4.536-.988,5.181-2,5.969-2.3c3.456-1.293-1.635-.436-5.969,1m3.1,3.8c-2.364.834-3.831,1.671-3.261,1.861s2.934-.5,5.253-1.524c5.073-2.25,3.963-2.438-1.992-.337m.18,4.715c-2.265.8-3.905,1.67-3.644,1.932.51.511,10.149-2.47,10.149-3.138,0-.711-2.286-.286-6.506,1.206" transform="translate(-268.292 -307.283)" fill="#243141" fill-rule="evenodd"/>
</svg>
