<svg xmlns="http://www.w3.org/2000/svg" width="400" height="91.325" viewBox="0 0 400 91.325">
  <g id="ET_LOGO" data-name="ET LOGO" transform="translate(-457.947 -170)">
    <path id="Subtraction_8" data-name="Subtraction 8" d="M13.332,71.327H0V0H10.406a2.875,2.875,0,0,0,.858,2.053,2.918,2.918,0,0,0,2.068.852v2.9a2.9,2.9,0,1,0,0,5.809V12.91a2.9,2.9,0,1,0,0,5.809V20.01a2.9,2.9,0,1,0,0,5.809v1.291a2.9,2.9,0,1,0,0,5.809v1.937a2.9,2.9,0,1,0,0,5.809v1.291a2.9,2.9,0,1,0,0,5.809v1.291a2.9,2.9,0,1,0,0,5.809v1.291a2.9,2.9,0,1,0,0,5.809v9.359Z" transform="translate(528.643 241.327) rotate(180)" fill="#0d1e34"/>
    <path id="Path_92431" data-name="Path 92431" d="M35.243-76.472l-13.2,50.493h-9L-.15-76.472h10.8l6.8,32.268h.2l6.8-32.268ZM68.236-47.391H48.04v6.872a4.867,4.867,0,0,0,1.35,3.685,5.051,5.051,0,0,0,3.649,1.295q2.9,0,3.849-1.693a9.084,9.084,0,0,0,1.15-3.386h10.2a14.511,14.511,0,0,1-4.1,10.756,14.344,14.344,0,0,1-4.8,3.287,15.9,15.9,0,0,1-6.3,1.2,15.675,15.675,0,0,1-8.148-1.992,13.753,13.753,0,0,1-5.149-5.278,13.74,13.74,0,0,1-1.5-4.581,37.307,37.307,0,0,1-.4-5.677V-59.541a37.307,37.307,0,0,1,.4-5.677,13.741,13.741,0,0,1,1.5-4.581,13.753,13.753,0,0,1,5.149-5.278,15.675,15.675,0,0,1,8.148-1.992,16.263,16.263,0,0,1,6.349,1.2,14.226,14.226,0,0,1,4.849,3.287,16.275,16.275,0,0,1,4,11.254Zm-20.2-7.967h10v-5.776a6.142,6.142,0,0,0-1.35-4.332,4.754,4.754,0,0,0-3.649-1.444,4.754,4.754,0,0,0-3.649,1.444,6.142,6.142,0,0,0-1.35,4.332ZM75.735-25.979V-76.472h10.2v5.378a30.944,30.944,0,0,1,6.1-4.382,15.622,15.622,0,0,1,7.4-1.593v10.756a8.3,8.3,0,0,0-3.1-.6,12.19,12.19,0,0,0-3.449.548,8.979,8.979,0,0,0-3.349,1.842,9.592,9.592,0,0,0-2.6,3.386,11.965,11.965,0,0,0-1,5.179v29.977Zm25.3-50.493h10.8l7,31.471h.2l6.9-31.471h10.5l-14.6,59.257a17.269,17.269,0,0,1-2.25,5.577,13.891,13.891,0,0,1-3.349,3.585,11.678,11.678,0,0,1-4.049,1.942,17.947,17.947,0,0,1-4.449.548h-2.8v-9.561h2.3a7.637,7.637,0,0,0,2.6-.4,4.194,4.194,0,0,0,2-1.793,17.473,17.473,0,0,0,1.5-3.934q.7-2.54,1.6-7.021Zm34.393,0Z" transform="translate(551.457 266.888)" fill="#0d1e34"/>
    <path id="Path_92430" data-name="Path 92430" d="M7.2-35.473V-106.8H37.864v9.617H17.489v20.937H35.241v9.617H17.489v20.937H37.864v10.218Z" transform="translate(511.443 276.8)" fill="#0d1e34"/>
    <g id="Group_2972" data-name="Group 2972" transform="translate(457.947 172.175)">
      <path id="Subtraction_4" data-name="Subtraction 4" d="M37.224,71.534H10.033A11.031,11.031,0,0,0,9.216,67.5,10.538,10.538,0,0,0,7.092,64.2a9.821,9.821,0,0,0-3.121-2.216,9.292,9.292,0,0,0-3.81-.812H0V10.68H.162A9.292,9.292,0,0,0,4,9.855,9.83,9.83,0,0,0,7.143,7.6,10.548,10.548,0,0,0,9.258,4.256,11.049,11.049,0,0,0,10.034.162c0-.053,0-.107,0-.162h27.19a2.894,2.894,0,0,0,.854,2.059,2.893,2.893,0,0,0,2.059.854V6.8a2.913,2.913,0,0,0,0,5.826v1.618a2.913,2.913,0,0,0,0,5.826v1.619a2.913,2.913,0,0,0,0,5.826v1.619a2.913,2.913,0,0,0,0,5.826v1.618a2.913,2.913,0,1,0,0,5.826v1.619a2.913,2.913,0,1,0,0,5.826v1.618a2.913,2.913,0,0,0,0,5.826V58.91a2.913,2.913,0,0,0,0,5.826v3.884a2.917,2.917,0,0,0-2.913,2.913Z" transform="matrix(0.966, -0.259, 0.259, 0.966, 0, 10.388)" fill="#d50355"/>
      <rect id="Rectangle_503" data-name="Rectangle 503" width="15.999" height="60.515" transform="matrix(0.966, -0.259, 0.259, 0.966, 16.436, 12.124)" fill="#0d1e34" opacity="0.1"/>
      <rect id="Rectangle_509" data-name="Rectangle 509" width="2.433" height="44.517" rx="1" transform="matrix(0.966, -0.259, 0.259, 0.966, 9.678, 22.168)" fill="#fff"/>
    </g>
    <path id="Path_92432" data-name="Path 92432" d="M204.228-86.384Zm4.1,0v-15.337h10.2v15.337h6.3v7.967h-6.3v27.985a8.749,8.749,0,0,0,.35,2.789,2.771,2.771,0,0,0,1.15,1.494,4.349,4.349,0,0,0,1.95.6q1.15.1,2.849.1v9.561h-4.2a13.82,13.82,0,0,1-5.849-1.1,10.545,10.545,0,0,1-3.749-2.789,10.94,10.94,0,0,1-2.05-3.834,14.209,14.209,0,0,1-.65-4.133V-78.416h-5.1v-7.967Zm20.4,50.493V-86.384h10.2v50.493Zm0-60.751V-106.8h10.2v10.158Zm29.394,46.21a4.866,4.866,0,0,0,1.35,3.685,5.051,5.051,0,0,0,3.649,1.295q2.9,0,3.849-1.693a9.084,9.084,0,0,0,1.15-3.386h10.2a14.511,14.511,0,0,1-4.1,10.756,14.344,14.344,0,0,1-4.8,3.287,15.9,15.9,0,0,1-6.3,1.2,15.676,15.676,0,0,1-8.148-1.992,13.753,13.753,0,0,1-5.149-5.278,13.741,13.741,0,0,1-1.5-4.581,37.309,37.309,0,0,1-.4-5.677V-69.453a37.309,37.309,0,0,1,.4-5.677,13.741,13.741,0,0,1,1.5-4.581,13.754,13.754,0,0,1,5.149-5.278,15.676,15.676,0,0,1,8.148-1.992,16.263,16.263,0,0,1,6.349,1.2,14.226,14.226,0,0,1,4.849,3.287q4,4.482,4,11.652h-10.2a6.468,6.468,0,0,0-1.35-4.531,4.754,4.754,0,0,0-3.649-1.444,4.754,4.754,0,0,0-3.649,1.444,6.142,6.142,0,0,0-1.35,4.332Zm25,14.54V-106.8h10.2v42.426h.2l12.3-22.01h10.2l-12.1,20.516,14.6,29.977h-11.1l-9.2-21.81-4.9,7.669v14.142ZM350.3-57.3H330.1v6.872a4.867,4.867,0,0,0,1.35,3.685,5.051,5.051,0,0,0,3.649,1.295q2.9,0,3.849-1.693a9.083,9.083,0,0,0,1.15-3.386h10.2a14.511,14.511,0,0,1-4.1,10.756,14.344,14.344,0,0,1-4.8,3.287,15.9,15.9,0,0,1-6.3,1.2,15.676,15.676,0,0,1-8.148-1.992,13.753,13.753,0,0,1-5.149-5.278,13.741,13.741,0,0,1-1.5-4.581,37.313,37.313,0,0,1-.4-5.677V-69.453a37.313,37.313,0,0,1,.4-5.677,13.741,13.741,0,0,1,1.5-4.581,13.754,13.754,0,0,1,5.149-5.278,15.676,15.676,0,0,1,8.148-1.992,16.263,16.263,0,0,1,6.349,1.2A14.226,14.226,0,0,1,346.3-82.5a16.275,16.275,0,0,1,4,11.254ZM330.1-65.27h10v-5.776a6.142,6.142,0,0,0-1.35-4.332,4.754,4.754,0,0,0-3.649-1.444,4.754,4.754,0,0,0-3.649,1.444,6.142,6.142,0,0,0-1.35,4.332ZM357.8-86.384v-15.337H368v15.337h6.3v7.967H368v27.985a8.749,8.749,0,0,0,.35,2.789,2.771,2.771,0,0,0,1.15,1.494,4.349,4.349,0,0,0,1.95.6q1.15.1,2.849.1v9.561h-4.2a13.82,13.82,0,0,1-5.849-1.1,10.545,10.545,0,0,1-3.749-2.789,10.941,10.941,0,0,1-2.05-3.834,14.209,14.209,0,0,1-.65-4.133V-78.416h-5.1v-7.967Z" transform="translate(483.652 276.8)" fill="#d50355"/>
  </g>
</svg>
