<svg xmlns="http://www.w3.org/2000/svg" width="300" height="182.156" viewBox="0 0 300 182.156">
  <g id="Group_2800" data-name="Group 2800" transform="translate(67.286 38)">
    <g id="Group_136" data-name="Group 136" transform="translate(-67.286 -38)">
      <g id="MAP-India" transform="translate(0 0)">
        <g id="Group_61" data-name="Group 61">
          <g id="Group_60" data-name="Group 60">
            <path id="Path_6" data-name="Path 6" d="M107.948,130.468H42.892a8.571,8.571,0,0,1-7.435-4.089L3.115,69.873a8.752,8.752,0,0,1,0-8.55L35.457,5.189A8.571,8.571,0,0,1,42.892,1.1h0a8.571,8.571,0,0,1,7.435,4.089L75.234,48.684,100.513,5.189A8.57,8.57,0,0,1,107.948,1.1h0a8.571,8.571,0,0,1,7.435,4.089l32.342,56.134c2.23,4.089,1.115,9.294-2.974,11.524s-9.294,1.115-11.524-2.974L107.948,26.379,82.669,69.873a8.571,8.571,0,0,1-7.435,4.089h0A8.571,8.571,0,0,1,67.8,69.873L42.892,26.379,20.216,65.784l27.509,47.584h60.223a8.55,8.55,0,0,1,0,17.1Z" transform="translate(-2 -1.1)" fill="#243141"/>
          </g>
        </g>
        <g id="Group_74" data-name="Group 74" transform="translate(131.97 137.175)">
          <g id="Group_62" data-name="Group 62" transform="translate(18.587 5.204)">
            <path id="Path_7" data-name="Path 7" d="M51.05,39.4H54.4V51.3H51.05V49.809a5.326,5.326,0,0,1-4.089,1.859c-2.6,0-4.461-1.859-4.461-4.833V39.4h3.346v6.691c0,1.859,1.115,2.6,2.23,2.6a3.13,3.13,0,0,0,2.6-1.487V39.4Z" transform="translate(-42.5 -39.4)" fill="#243141"/>
          </g>
          <g id="Group_63" data-name="Group 63" transform="translate(32.342 4.461)">
            <path id="Path_8" data-name="Path 8" d="M46.572,51.1V48.122A9.3,9.3,0,0,0,51.4,49.609c1.487,0,1.859-.372,1.859-1.115,0-.372,0-.372-.743-.743-.372,0-.372,0-.744-.372l-.743-.372c-.372,0-.744-.372-1.115-.372-2.6-.743-3.717-1.487-3.717-3.717S48.059,39.2,51.4,39.2a7.928,7.928,0,0,1,4.461,1.115v2.974a9.692,9.692,0,0,0-4.089-1.115c-1.115,0-1.859.372-1.859,1.115a.8.8,0,0,0,.743.743c.372,0,.744.372,1.115.372l1.115.372c2.6.744,3.717,1.859,3.717,3.717a2.806,2.806,0,0,1-1.487,2.6A6.28,6.28,0,0,1,51.4,52.211,9.3,9.3,0,0,1,46.572,51.1Z" transform="translate(-46.2 -39.2)" fill="#243141"/>
          </g>
          <g id="Group_64" data-name="Group 64" transform="translate(44.238 5.204)">
            <path id="Path_9" data-name="Path 9" d="M51.259,50.181A6.32,6.32,0,0,1,55.72,39.4a5.326,5.326,0,0,1,4.089,1.859A5.926,5.926,0,0,1,61.3,45.72v.744h-8.55c.372,1.487,1.859,2.6,4.089,2.6a6.28,6.28,0,0,0,3.717-1.115v2.6a7.928,7.928,0,0,1-4.461,1.115A6.855,6.855,0,0,1,51.259,50.181Zm6.691-5.948c0-1.487-1.115-2.23-2.6-2.23a2.486,2.486,0,0,0-2.6,2.23Z" transform="translate(-49.4 -39.4)" fill="#243141"/>
          </g>
          <g id="Group_65" data-name="Group 65" transform="translate(57.621 5.204)">
            <path id="Path_10" data-name="Path 10" d="M61.55,39.4H64.9V51.3H61.55V49.809a5.326,5.326,0,0,1-4.089,1.859c-2.6,0-4.461-1.859-4.461-4.833V39.4h3.717v6.691c0,1.859,1.115,2.6,2.23,2.6a3.13,3.13,0,0,0,2.6-1.487Z" transform="translate(-53 -39.4)" fill="#243141"/>
          </g>
          <g id="Group_66" data-name="Group 66" transform="translate(72.119 5.204)">
            <path id="Path_11" data-name="Path 11" d="M56.9,51.668v-11.9h3.346v1.487A4.575,4.575,0,0,1,63.963,39.4a4.1,4.1,0,0,1,3.718,1.859A4.8,4.8,0,0,1,71.77,39.4c2.6,0,4.089,1.487,4.089,4.833v7.435H72.513V44.976c0-1.487-.743-2.6-1.859-2.6a3.763,3.763,0,0,0-2.6,1.487V51.3H64.707V44.6c0-1.487-.744-2.6-1.859-2.6a3.763,3.763,0,0,0-2.6,1.487V51.3H56.9Z" transform="translate(-56.9 -39.4)" fill="#243141"/>
          </g>
          <g id="Group_67" data-name="Group 67" transform="translate(98.513 4.833)">
            <path id="Path_12" data-name="Path 12" d="M65.859,41.159A7.067,7.067,0,0,1,70.692,39.3a7.829,7.829,0,0,1,4.833,1.859,6.283,6.283,0,0,1,0,8.922,7.067,7.067,0,0,1-4.833,1.859,7.83,7.83,0,0,1-4.833-1.859C64.372,48.965,64,47.478,64,45.62A5.888,5.888,0,0,1,65.859,41.159Zm4.461,7.807A2.248,2.248,0,0,0,72.55,47.85a2.732,2.732,0,0,0,.743-2.231,3.143,3.143,0,0,0-.743-2.23,3.213,3.213,0,0,0-2.231-1.115,2.248,2.248,0,0,0-2.23,1.115,2.731,2.731,0,0,0-.743,2.23,3.143,3.143,0,0,0,.743,2.231A2.226,2.226,0,0,0,70.32,48.965Z" transform="translate(-64 -39.3)" fill="#243141"/>
          </g>
          <g id="Group_68" data-name="Group 68" transform="translate(146.097 5.204)">
            <path id="Path_13" data-name="Path 13" d="M76.8,51.668v-11.9h3.346V41.63a2.9,2.9,0,0,1,1.487-1.487,5.373,5.373,0,0,1,2.6-.744h.372v3.346H83.492a3.765,3.765,0,0,0-3.346,2.231v7.063H76.8Z" transform="translate(-76.8 -39.4)" fill="#243141"/>
          </g>
          <g id="Group_73" data-name="Group 73">
            <g id="Group_69" data-name="Group 69" transform="translate(0 0.743)">
              <path id="Path_14" data-name="Path 14" d="M37.5,54.929V38.2h3.346l4.833,7.063L50.511,38.2h3.346V54.929H50.511V43.4L45.678,50.1,40.846,43.4V54.929Z" transform="translate(-37.5 -38.2)" fill="#243141"/>
            </g>
            <g id="Group_70" data-name="Group 70" transform="translate(112.268)">
              <path id="Path_15" data-name="Path 15" d="M73.276,55.472H69.93V46.178H67.7V43.2h2.23V42.089A3.9,3.9,0,0,1,74.02,38a7.247,7.247,0,0,1,2.974.372v2.6a4.041,4.041,0,0,0-1.859-.372c-1.115,0-1.487.372-1.487,1.487v.744h3.718v2.974H73.648v9.665Z" transform="translate(-67.7 -38)" fill="#243141"/>
            </g>
            <g id="Group_71" data-name="Group 71" transform="translate(127.509 0.372)">
              <path id="Path_16" data-name="Path 16" d="M71.8,55.2l7.063-17.1h3.346l7.063,17.1H85.555l-1.487-3.717H77L75.517,55.2Zm5.948-7.063h4.833l-2.6-5.948Z" transform="translate(-71.8 -38.1)" fill="#243141"/>
            </g>
            <g id="Group_72" data-name="Group 72" transform="translate(155.39 1.859)">
              <path id="Path_17" data-name="Path 17" d="M81.53,44.82H79.3V41.846h2.23V38.5h3.346v3.346h3.346V44.82H84.876v4.833c0,1.115.372,1.859,1.487,1.859a3.352,3.352,0,0,0,1.859-.372v2.974a5.759,5.759,0,0,1-2.974.743c-2.6,0-3.718-1.487-3.718-4.089Z" transform="translate(-79.3 -38.5)" fill="#243141"/>
            </g>
          </g>
        </g>
        <g id="Group_87" data-name="Group 87" transform="translate(130.855 158.736)">
          <g id="Group_75" data-name="Group 75">
            <path id="Path_18" data-name="Path 18" d="M48.724,49.376a5.326,5.326,0,0,0-3.717-1.487,2.082,2.082,0,0,0-2.231,1.859c0,.372,0,.744.372.744a3.9,3.9,0,0,0,1.115,1.487l4.089,4.089a7.424,7.424,0,0,0,.743-3.346h3.346A9.132,9.132,0,0,1,50.583,58.3l3.346,3.346H49.839l-1.487-1.487a7.472,7.472,0,0,1-4.833,1.487,5.926,5.926,0,0,1-4.461-1.487A5.326,5.326,0,0,1,37.2,56.068a7,7,0,0,1,.743-2.974c.743-.743,1.115-1.487,1.859-1.859a3.539,3.539,0,0,1-.744-2.6,4.036,4.036,0,0,1,1.487-3.346A5.679,5.679,0,0,1,44.263,43.8a9.9,9.9,0,0,1,4.461,1.115Zm-2.6,8.922-4.089-4.089a3.129,3.129,0,0,0-1.487,2.6c0,1.487,1.115,2.6,2.974,2.6A3.375,3.375,0,0,0,46.122,58.3Z" transform="translate(-37.2 -43.8)" fill="#243141"/>
          </g>
          <g id="Group_76" data-name="Group 76" transform="translate(23.792 1.487)">
            <path id="Path_19" data-name="Path 19" d="M43.6,60.929V44.2h7.063c1.859,0,3.346.372,4.089,1.487A4.773,4.773,0,0,1,56.239,49.4a4.772,4.772,0,0,1-1.487,3.717,5.59,5.59,0,0,1-4.089,1.487H46.946V61.3H43.6Zm3.346-9.665h3.717c1.487,0,2.6-.744,2.6-2.231s-1.115-2.23-2.6-2.23H46.946Z" transform="translate(-43.6 -44.2)" fill="#243141"/>
          </g>
          <g id="Group_77" data-name="Group 77" transform="translate(38.662 1.487)">
            <path id="Path_20" data-name="Path 20" d="M50.946,60.929H47.6V44.2h3.346v6.32a5.326,5.326,0,0,1,4.089-1.859c2.6,0,4.461,1.859,4.461,4.833v7.435H56.15V54.237c0-1.859-1.115-2.6-2.231-2.6a3.13,3.13,0,0,0-2.6,1.487v7.807Z" transform="translate(-47.6 -44.2)" fill="#243141"/>
          </g>
          <g id="Group_78" data-name="Group 78" transform="translate(52.045 5.948)">
            <path id="Path_21" data-name="Path 21" d="M53.059,47.259A6.422,6.422,0,0,1,57.891,45.4a7.83,7.83,0,0,1,4.833,1.859,6.283,6.283,0,0,1,0,8.922,6.422,6.422,0,0,1-4.833,1.859,7.83,7.83,0,0,1-4.833-1.859,6.282,6.282,0,0,1,0-8.922Zm4.833,7.807a2.649,2.649,0,0,0,2.23-1.115,3.213,3.213,0,0,0,1.115-2.23,2.248,2.248,0,0,0-1.115-2.231,3.213,3.213,0,0,0-2.23-1.115,2.248,2.248,0,0,0-2.23,1.115,2.732,2.732,0,0,0-.743,2.231,3.142,3.142,0,0,0,.743,2.23A2.248,2.248,0,0,0,57.891,55.065Z" transform="translate(-51.2 -45.4)" fill="#243141"/>
          </g>
          <g id="Group_79" data-name="Group 79" transform="translate(65.799 2.602)">
            <path id="Path_22" data-name="Path 22" d="M57.13,50.82H54.9V47.846h2.23V44.5h3.346v3.346h3.346V50.82H60.476v4.833c0,1.115.372,1.859,1.487,1.859a3.351,3.351,0,0,0,1.859-.372v2.974a5.758,5.758,0,0,1-2.974.744c-2.6,0-3.718-1.487-3.718-4.089Z" transform="translate(-54.9 -44.5)" fill="#243141"/>
          </g>
          <g id="Group_80" data-name="Group 80" transform="translate(76.208 5.948)">
            <path id="Path_23" data-name="Path 23" d="M59.559,47.259A6.422,6.422,0,0,1,64.391,45.4a7.83,7.83,0,0,1,4.833,1.859,6.283,6.283,0,0,1,0,8.922,6.422,6.422,0,0,1-4.833,1.859,7.83,7.83,0,0,1-4.833-1.859A6.156,6.156,0,0,1,57.7,51.72C57.7,49.861,58.072,48.374,59.559,47.259Zm4.461,7.807a2.248,2.248,0,0,0,2.23-1.115,2.731,2.731,0,0,0,.744-2.23,3.143,3.143,0,0,0-.744-2.231,3.213,3.213,0,0,0-2.23-1.115,2.248,2.248,0,0,0-2.23,1.115,2.731,2.731,0,0,0-.743,2.231,3.143,3.143,0,0,0,.743,2.23A3.213,3.213,0,0,0,64.02,55.065Z" transform="translate(-57.7 -45.4)" fill="#243141"/>
          </g>
          <g id="Group_81" data-name="Group 81" transform="translate(90.335 5.576)">
            <path id="Path_24" data-name="Path 24" d="M70.794,46.043h3.346V56.824c0,4.461-3.346,6.32-6.691,6.32a7.928,7.928,0,0,1-4.461-1.115V59.055a7.493,7.493,0,0,0,4.089,1.115c1.859,0,3.718-.744,3.718-3.346v-.744a4.576,4.576,0,0,1-3.718,1.859A5.751,5.751,0,0,1,61.5,51.62a6.49,6.49,0,0,1,1.487-4.461A5.326,5.326,0,0,1,67.076,45.3a4.576,4.576,0,0,1,3.718,1.859Zm0,7.063V50.133c-.372-1.115-1.487-1.487-2.974-1.487a2.932,2.932,0,0,0-2.974,2.974,2.736,2.736,0,0,0,2.974,2.974C69.307,54.594,70.422,54.222,70.794,53.107Z" transform="translate(-61.5 -45.3)" fill="#243141"/>
          </g>
          <g id="Group_82" data-name="Group 82" transform="translate(105.576 5.948)">
            <path id="Path_25" data-name="Path 25" d="M65.6,57.668v-11.9h3.346V47.63a2.9,2.9,0,0,1,1.487-1.487,5.373,5.373,0,0,1,2.6-.744h.372v3.346H72.291a3.765,3.765,0,0,0-3.346,2.231v7.063H65.6Z" transform="translate(-65.6 -45.4)" fill="#243141"/>
          </g>
          <g id="Group_83" data-name="Group 83" transform="translate(114.126 5.576)">
            <path id="Path_26" data-name="Path 26" d="M80.911,55.337v2.6a2.786,2.786,0,0,1-1.859.372c-1.487,0-2.23-.372-2.6-1.487a5.077,5.077,0,0,1-4.089,1.487c-2.6,0-4.461-1.487-4.461-4.089a3.381,3.381,0,0,1,1.487-2.974,4.544,4.544,0,0,1,3.346-1.115,7.423,7.423,0,0,1,3.346.743V50.5c0-1.487-1.115-2.23-2.974-2.23a7.173,7.173,0,0,0-3.718,1.115V46.415A7.928,7.928,0,0,1,73.848,45.3a7.494,7.494,0,0,1,4.089,1.115,3.624,3.624,0,0,1,1.487,3.346V53.85c0,.743.372.743.743.743C80.539,55.337,80.911,55.337,80.911,55.337Zm-4.833-2.23a5.372,5.372,0,0,0-2.6-.743c-1.487,0-2.231.743-2.231,1.487,0,1.115.743,1.487,2.231,1.487a2.894,2.894,0,0,0,2.6-1.115Z" transform="translate(-67.9 -45.3)" fill="#243141"/>
          </g>
          <g id="Group_84" data-name="Group 84" transform="translate(128.996 5.948)">
            <path id="Path_27" data-name="Path 27" d="M83.053,47.259a5.925,5.925,0,0,1,1.487,4.461,5.925,5.925,0,0,1-1.487,4.461,5.326,5.326,0,0,1-4.089,1.859,4.1,4.1,0,0,1-3.718-1.859V62.5H71.9V45.772h3.346v1.487A4.575,4.575,0,0,1,78.963,45.4,4.359,4.359,0,0,1,83.053,47.259Zm-7.807,2.974v2.974a2.944,2.944,0,0,0,2.974,1.859,2.649,2.649,0,0,0,2.23-1.115,2.731,2.731,0,0,0,.744-2.23,3.142,3.142,0,0,0-.744-2.231,3.213,3.213,0,0,0-2.23-1.115A2.944,2.944,0,0,0,75.246,50.233Z" transform="translate(-71.9 -45.4)" fill="#243141"/>
          </g>
          <g id="Group_85" data-name="Group 85" transform="translate(143.494 1.487)">
            <path id="Path_28" data-name="Path 28" d="M79.146,60.929H75.8V44.2h3.346v6.32a5.326,5.326,0,0,1,4.089-1.859c2.6,0,4.461,1.859,4.461,4.833v7.435H84.35V54.237c0-1.859-1.115-2.6-2.23-2.6a3.13,3.13,0,0,0-2.6,1.487v7.807Z" transform="translate(-75.8 -44.2)" fill="#243141"/>
          </g>
          <g id="Group_86" data-name="Group 86" transform="translate(156.134 6.32)">
            <path id="Path_29" data-name="Path 29" d="M79.944,61.857V58.883a2.785,2.785,0,0,0,1.859.372c1.115,0,1.859-.744,2.6-2.23L79.2,45.5h3.717l2.974,7.807L88.865,45.5h3.346l-5.2,13.011c-1.115,2.6-2.6,3.718-4.833,3.718A4.715,4.715,0,0,1,79.944,61.857Z" transform="translate(-79.2 -45.5)" fill="#243141"/>
          </g>
        </g>
        <g id="Group_91" data-name="Group 91" transform="translate(131.97 86.989)">
          <g id="Group_88" data-name="Group 88">
            <path id="Path_30" data-name="Path 30" d="M37.5,66.507V24.5H47.909L58.318,40.857,68.727,24.5H79.136V66.507H69.1V40.857L58.69,56.47,48.281,40.857V66.507Z" transform="translate(-37.5 -24.5)" fill="#243141"/>
          </g>
          <g id="Group_89" data-name="Group 89" transform="translate(45.353)">
            <path id="Path_31" data-name="Path 31" d="M49.7,66.507,66.8,24.5H77.209l17.1,42.007H82.786L79.44,57.585H64.2l-3.346,8.922ZM67.916,49.035h8.55L72,37.883Z" transform="translate(-49.7 -24.5)" fill="#243141"/>
          </g>
          <g id="Group_90" data-name="Group 90" transform="translate(93.68)">
            <path id="Path_32" data-name="Path 32" d="M62.7,66.507V24.5H81.287c4.461,0,8.178,1.115,11.152,3.717a12.888,12.888,0,0,1,4.089,9.665,12.888,12.888,0,0,1-4.089,9.665c-2.6,2.6-6.32,3.717-11.152,3.717H73.481V66.879H62.7ZM73.481,41.972h7.063c2.974,0,5.2-1.487,5.2-4.089s-1.859-4.089-5.2-4.089H73.481Z" transform="translate(-62.7 -24.5)" fill="#243141"/>
          </g>
        </g>
      </g>
    </g>
  </g>
</svg>
