<svg xmlns="http://www.w3.org/2000/svg" width="34" height="29.952" viewBox="0 0 34 29.952">
  <g id="Group_49" data-name="Group 49" transform="translate(-340 -15)">
    <g id="Group_136" data-name="Group 136" transform="translate(340 15)">
      <g id="MAP-India" transform="translate(0)">
        <g id="Group_61" data-name="Group 61">
          <g id="Group_60" data-name="Group 60">
            <path id="Path_6" data-name="Path 6" d="M26.529,31.052H11.467A1.984,1.984,0,0,1,9.746,30.1L2.258,17.023a2.026,2.026,0,0,1,0-1.98l7.488-13A1.984,1.984,0,0,1,11.467,1.1h0a1.984,1.984,0,0,1,1.721.947l5.767,10.07,5.853-10.07A1.984,1.984,0,0,1,26.529,1.1h0a1.984,1.984,0,0,1,1.721.947l7.488,13a1.948,1.948,0,1,1-3.357,1.98L26.529,6.953l-5.853,10.07a1.984,1.984,0,0,1-1.721.947h0a1.984,1.984,0,0,1-1.721-.947L11.467,6.953l-5.25,9.123,6.369,11.017H26.529a1.98,1.98,0,0,1,0,3.959Z" transform="translate(-2 -1.1)" fill="#292c2d"/>
          </g>
        </g>
      </g>
    </g>
  </g>
</svg>
