<svg id="Group_3287" data-name="Group 3287" xmlns="http://www.w3.org/2000/svg" width="120" height="72.862" viewBox="0 0 120 72.862">
  <g id="Group_136" data-name="Group 136" transform="translate(0 0)">
    <g id="MAP-India" transform="translate(0 0)">
      <g id="Group_61" data-name="Group 61">
        <g id="Group_60" data-name="Group 60">
          <path id="Path_6" data-name="Path 6" d="M44.379,52.847H18.357a3.428,3.428,0,0,1-2.974-1.636L2.446,28.609a3.5,3.5,0,0,1,0-3.42L15.383,2.736A3.428,3.428,0,0,1,18.357,1.1h0a3.428,3.428,0,0,1,2.974,1.636l9.963,17.4,10.112-17.4A3.428,3.428,0,0,1,44.379,1.1h0a3.428,3.428,0,0,1,2.974,1.636L60.29,25.189a3.366,3.366,0,1,1-5.8,3.42l-10.112-17.4-10.112,17.4a3.428,3.428,0,0,1-2.974,1.636h0a3.428,3.428,0,0,1-2.974-1.636l-9.963-17.4L9.286,26.974l11,19.033H44.379a3.42,3.42,0,0,1,0,6.84Z" transform="translate(-2 -1.1)" fill="#fff"/>
        </g>
      </g>
      <g id="Group_74" data-name="Group 74" transform="translate(52.788 54.87)">
        <g id="Group_62" data-name="Group 62" transform="translate(7.435 2.082)">
          <path id="Path_7" data-name="Path 7" d="M45.92,39.4h1.338v4.758H45.92v-.595a2.13,2.13,0,0,1-1.636.743A1.76,1.76,0,0,1,42.5,42.374V39.4h1.338v2.677c0,.743.446,1.041.892,1.041a1.252,1.252,0,0,0,1.041-.595V39.4Z" transform="translate(-42.5 -39.4)" fill="#fff"/>
        </g>
        <g id="Group_63" data-name="Group 63" transform="translate(12.937 1.784)">
          <path id="Path_8" data-name="Path 8" d="M46.349,43.958v-1.19a3.719,3.719,0,0,0,1.933.595c.595,0,.744-.149.744-.446,0-.149,0-.149-.3-.3-.149,0-.149,0-.3-.149l-.3-.149c-.149,0-.3-.149-.446-.149-1.041-.3-1.487-.595-1.487-1.487s.743-1.487,2.082-1.487a3.171,3.171,0,0,1,1.784.446v1.19a3.877,3.877,0,0,0-1.636-.446c-.446,0-.743.149-.743.446a.32.32,0,0,0,.3.3c.149,0,.3.149.446.149l.446.149c1.041.3,1.487.744,1.487,1.487a1.123,1.123,0,0,1-.595,1.041,2.512,2.512,0,0,1-1.487.446A3.72,3.72,0,0,1,46.349,43.958Z" transform="translate(-46.2 -39.2)" fill="#fff"/>
        </g>
        <g id="Group_64" data-name="Group 64" transform="translate(17.695 2.082)">
          <path id="Path_9" data-name="Path 9" d="M50.144,43.712A2.528,2.528,0,0,1,51.928,39.4a2.13,2.13,0,0,1,1.636.743,2.37,2.37,0,0,1,.595,1.784v.3h-3.42a1.544,1.544,0,0,0,1.636,1.041,2.512,2.512,0,0,0,1.487-.446v1.041a3.171,3.171,0,0,1-1.784.446A2.742,2.742,0,0,1,50.144,43.712Zm2.677-2.379c0-.595-.446-.892-1.041-.892a.994.994,0,0,0-1.041.892Z" transform="translate(-49.4 -39.4)" fill="#fff"/>
        </g>
        <g id="Group_65" data-name="Group 65" transform="translate(23.048 2.082)">
          <path id="Path_10" data-name="Path 10" d="M56.42,39.4h1.338v4.758H56.42v-.595a2.13,2.13,0,0,1-1.636.743A1.76,1.76,0,0,1,53,42.374V39.4h1.487v2.677c0,.743.446,1.041.892,1.041a1.252,1.252,0,0,0,1.041-.595Z" transform="translate(-53 -39.4)" fill="#fff"/>
        </g>
        <g id="Group_66" data-name="Group 66" transform="translate(28.848 2.082)">
          <path id="Path_11" data-name="Path 11" d="M56.9,44.307V39.549h1.338v.595a1.83,1.83,0,0,1,1.487-.743,1.641,1.641,0,0,1,1.487.743,1.919,1.919,0,0,1,1.636-.743c1.041,0,1.636.595,1.636,1.933v2.974H63.145V41.63c0-.595-.3-1.041-.743-1.041a1.505,1.505,0,0,0-1.041.595v2.974H60.023V41.482c0-.595-.3-1.041-.744-1.041a1.505,1.505,0,0,0-1.041.595v3.123H56.9Z" transform="translate(-56.9 -39.4)" fill="#fff"/>
        </g>
        <g id="Group_67" data-name="Group 67" transform="translate(39.405 1.933)">
          <path id="Path_12" data-name="Path 12" d="M64.743,40.043a2.827,2.827,0,0,1,1.933-.743,3.132,3.132,0,0,1,1.933.743,2.513,2.513,0,0,1,0,3.569,2.827,2.827,0,0,1-1.933.743,3.132,3.132,0,0,1-1.933-.743A2,2,0,0,1,64,41.828,2.355,2.355,0,0,1,64.743,40.043Zm1.784,3.123a.9.9,0,0,0,.892-.446,1.093,1.093,0,0,0,.3-.892,1.257,1.257,0,0,0-.3-.892,1.285,1.285,0,0,0-.892-.446.9.9,0,0,0-.892.446,1.093,1.093,0,0,0-.3.892,1.257,1.257,0,0,0,.3.892A.891.891,0,0,0,66.528,43.166Z" transform="translate(-64 -39.3)" fill="#fff"/>
        </g>
        <g id="Group_68" data-name="Group 68" transform="translate(58.439 2.082)">
          <path id="Path_13" data-name="Path 13" d="M76.8,44.307V39.549h1.338v.743a1.161,1.161,0,0,1,.595-.595,2.149,2.149,0,0,1,1.041-.3h.149v1.338h-.446a1.506,1.506,0,0,0-1.338.892v2.825H76.8Z" transform="translate(-76.8 -39.4)" fill="#fff"/>
        </g>
        <g id="Group_73" data-name="Group 73">
          <g id="Group_69" data-name="Group 69" transform="translate(0 0.297)">
            <path id="Path_14" data-name="Path 14" d="M37.5,44.891V38.2h1.338l1.933,2.825L42.7,38.2h1.338v6.691H42.7v-4.61l-1.933,2.677-1.933-2.677v4.61Z" transform="translate(-37.5 -38.2)" fill="#fff"/>
          </g>
          <g id="Group_70" data-name="Group 70" transform="translate(44.907)">
            <path id="Path_15" data-name="Path 15" d="M69.931,44.989H68.592V41.271H67.7v-1.19h.892v-.446A1.56,1.56,0,0,1,70.228,38a2.9,2.9,0,0,1,1.19.149V39.19a1.616,1.616,0,0,0-.743-.149c-.446,0-.595.149-.595.595v.3h1.487v1.19H70.079v3.866Z" transform="translate(-67.7 -38)" fill="#fff"/>
          </g>
          <g id="Group_71" data-name="Group 71" transform="translate(51.004 0.149)">
            <path id="Path_16" data-name="Path 16" d="M71.8,44.94l2.825-6.84h1.338l2.825,6.84H77.3l-.595-1.487H73.882l-.595,1.487Zm2.379-2.825h1.933l-1.041-2.379Z" transform="translate(-71.8 -38.1)" fill="#fff"/>
          </g>
          <g id="Group_72" data-name="Group 72" transform="translate(62.156 0.743)">
            <path id="Path_17" data-name="Path 17" d="M80.192,41.028H79.3v-1.19h.892V38.5H81.53v1.338h1.338v1.19H81.53v1.933c0,.446.149.744.595.744a1.341,1.341,0,0,0,.744-.149v1.19a2.3,2.3,0,0,1-1.19.3c-1.041,0-1.487-.595-1.487-1.636Z" transform="translate(-79.3 -38.5)" fill="#fff"/>
          </g>
        </g>
      </g>
      <g id="Group_87" data-name="Group 87" transform="translate(52.342 63.494)">
        <g id="Group_75" data-name="Group 75">
          <path id="Path_18" data-name="Path 18" d="M41.81,46.03a2.13,2.13,0,0,0-1.487-.595.833.833,0,0,0-.892.743c0,.149,0,.3.149.3a1.559,1.559,0,0,0,.446.595l1.636,1.636a2.969,2.969,0,0,0,.3-1.338H43.3a3.653,3.653,0,0,1-.743,2.23l1.338,1.338H42.256l-.595-.595a2.989,2.989,0,0,1-1.933.595,2.37,2.37,0,0,1-1.784-.595,2.13,2.13,0,0,1-.743-1.636,2.8,2.8,0,0,1,.3-1.19c.3-.3.446-.595.744-.743a1.416,1.416,0,0,1-.3-1.041,1.615,1.615,0,0,1,.595-1.338,2.272,2.272,0,0,1,1.487-.595,3.959,3.959,0,0,1,1.784.446ZM40.769,49.6l-1.636-1.636A1.252,1.252,0,0,0,38.538,49a1.061,1.061,0,0,0,1.19,1.041A1.35,1.35,0,0,0,40.769,49.6Z" transform="translate(-37.2 -43.8)" fill="#fff"/>
        </g>
        <g id="Group_76" data-name="Group 76" transform="translate(9.517 0.595)">
          <path id="Path_19" data-name="Path 19" d="M43.6,50.891V44.2h2.825a1.853,1.853,0,0,1,1.636.595,2.156,2.156,0,0,1,0,2.974,2.236,2.236,0,0,1-1.636.595H44.938V51.04H43.6Zm1.338-3.866h1.487c.595,0,1.041-.3,1.041-.892s-.446-.892-1.041-.892H44.938Z" transform="translate(-43.6 -44.2)" fill="#fff"/>
        </g>
        <g id="Group_77" data-name="Group 77" transform="translate(15.465 0.595)">
          <path id="Path_20" data-name="Path 20" d="M48.938,50.891H47.6V44.2h1.338v2.528a2.13,2.13,0,0,1,1.636-.744,1.76,1.76,0,0,1,1.784,1.933v2.974H51.02V48.215c0-.743-.446-1.041-.892-1.041a1.252,1.252,0,0,0-1.041.595v3.123Z" transform="translate(-47.6 -44.2)" fill="#fff"/>
        </g>
        <g id="Group_78" data-name="Group 78" transform="translate(20.818 2.379)">
          <path id="Path_21" data-name="Path 21" d="M51.943,46.144a2.569,2.569,0,0,1,1.933-.744,3.132,3.132,0,0,1,1.933.744,2.513,2.513,0,0,1,0,3.569,2.569,2.569,0,0,1-1.933.743,3.132,3.132,0,0,1-1.933-.743,2.513,2.513,0,0,1,0-3.569Zm1.933,3.123a1.06,1.06,0,0,0,.892-.446,1.285,1.285,0,0,0,.446-.892.9.9,0,0,0-.446-.892,1.285,1.285,0,0,0-.892-.446.9.9,0,0,0-.892.446,1.093,1.093,0,0,0-.3.892,1.257,1.257,0,0,0,.3.892A.9.9,0,0,0,53.877,49.266Z" transform="translate(-51.2 -45.4)" fill="#fff"/>
        </g>
        <g id="Group_79" data-name="Group 79" transform="translate(26.32 1.041)">
          <path id="Path_22" data-name="Path 22" d="M55.792,47.028H54.9v-1.19h.892V44.5H57.13v1.338h1.338v1.19H57.13v1.933c0,.446.149.744.595.744a1.34,1.34,0,0,0,.743-.149v1.19a2.3,2.3,0,0,1-1.19.3c-1.041,0-1.487-.595-1.487-1.636Z" transform="translate(-54.9 -44.5)" fill="#fff"/>
        </g>
        <g id="Group_80" data-name="Group 80" transform="translate(30.483 2.379)">
          <path id="Path_23" data-name="Path 23" d="M58.443,46.144a2.569,2.569,0,0,1,1.933-.744,3.132,3.132,0,0,1,1.933.744,2.513,2.513,0,0,1,0,3.569,2.569,2.569,0,0,1-1.933.743,3.132,3.132,0,0,1-1.933-.743,2.463,2.463,0,0,1-.743-1.784A2,2,0,0,1,58.443,46.144Zm1.784,3.123a.9.9,0,0,0,.892-.446,1.092,1.092,0,0,0,.3-.892,1.257,1.257,0,0,0-.3-.892,1.285,1.285,0,0,0-.892-.446.9.9,0,0,0-.892.446,1.093,1.093,0,0,0-.3.892,1.257,1.257,0,0,0,.3.892A1.285,1.285,0,0,0,60.228,49.266Z" transform="translate(-57.7 -45.4)" fill="#fff"/>
        </g>
        <g id="Group_81" data-name="Group 81" transform="translate(36.134 2.23)">
          <path id="Path_24" data-name="Path 24" d="M65.217,45.6h1.338V49.91a2.451,2.451,0,0,1-2.677,2.528,3.171,3.171,0,0,1-1.784-.446V50.8a3,3,0,0,0,1.636.446c.744,0,1.487-.3,1.487-1.338v-.3a1.83,1.83,0,0,1-1.487.743,2.3,2.3,0,0,1-2.23-2.528,2.6,2.6,0,0,1,.595-1.784A2.13,2.13,0,0,1,63.73,45.3a1.83,1.83,0,0,1,1.487.743Zm0,2.825v-1.19c-.149-.446-.595-.595-1.19-.595a1.173,1.173,0,0,0-1.19,1.19,1.094,1.094,0,0,0,1.19,1.19C64.623,49.017,65.069,48.869,65.217,48.423Z" transform="translate(-61.5 -45.3)" fill="#fff"/>
        </g>
        <g id="Group_82" data-name="Group 82" transform="translate(42.23 2.379)">
          <path id="Path_25" data-name="Path 25" d="M65.6,50.307V45.549h1.338v.743a1.161,1.161,0,0,1,.595-.595,2.149,2.149,0,0,1,1.041-.3h.149v1.338h-.446a1.506,1.506,0,0,0-1.338.892v2.825H65.6Z" transform="translate(-65.6 -45.4)" fill="#fff"/>
        </g>
        <g id="Group_83" data-name="Group 83" transform="translate(45.651 2.23)">
          <path id="Path_26" data-name="Path 26" d="M73.1,49.315v1.041a1.114,1.114,0,0,1-.743.149c-.595,0-.892-.149-1.041-.595a2.031,2.031,0,0,1-1.636.595A1.6,1.6,0,0,1,67.9,48.869a1.352,1.352,0,0,1,.595-1.19,1.818,1.818,0,0,1,1.338-.446,2.969,2.969,0,0,1,1.338.3v-.149c0-.595-.446-.892-1.19-.892a2.869,2.869,0,0,0-1.487.446v-1.19a3.171,3.171,0,0,1,1.784-.446,3,3,0,0,1,1.636.446,1.449,1.449,0,0,1,.595,1.338V48.72c0,.3.149.3.3.3C72.956,49.315,73.1,49.315,73.1,49.315Zm-1.933-.892a2.149,2.149,0,0,0-1.041-.3c-.595,0-.892.3-.892.595,0,.446.3.595.892.595a1.158,1.158,0,0,0,1.041-.446Z" transform="translate(-67.9 -45.3)" fill="#fff"/>
        </g>
        <g id="Group_84" data-name="Group 84" transform="translate(51.599 2.379)">
          <path id="Path_27" data-name="Path 27" d="M76.361,46.144a2.974,2.974,0,0,1,0,3.569,2.13,2.13,0,0,1-1.636.743,1.641,1.641,0,0,1-1.487-.743V52.24H71.9V45.549h1.338v.595a1.83,1.83,0,0,1,1.487-.744A1.744,1.744,0,0,1,76.361,46.144Zm-3.123,1.19v1.19a1.177,1.177,0,0,0,1.19.743,1.06,1.06,0,0,0,.892-.446,1.092,1.092,0,0,0,.3-.892,1.257,1.257,0,0,0-.3-.892,1.285,1.285,0,0,0-.892-.446A1.177,1.177,0,0,0,73.238,47.333Z" transform="translate(-71.9 -45.4)" fill="#fff"/>
        </g>
        <g id="Group_85" data-name="Group 85" transform="translate(57.398 0.595)">
          <path id="Path_28" data-name="Path 28" d="M77.138,50.891H75.8V44.2h1.338v2.528a2.13,2.13,0,0,1,1.636-.744,1.76,1.76,0,0,1,1.784,1.933v2.974H79.22V48.215c0-.743-.446-1.041-.892-1.041a1.252,1.252,0,0,0-1.041.595v3.123Z" transform="translate(-75.8 -44.2)" fill="#fff"/>
        </g>
        <g id="Group_86" data-name="Group 86" transform="translate(62.454 2.528)">
          <path id="Path_29" data-name="Path 29" d="M79.5,52.043v-1.19a1.114,1.114,0,0,0,.743.149c.446,0,.744-.3,1.041-.892L79.2,45.5h1.487l1.19,3.123,1.19-3.123H84.4l-2.082,5.2a2,2,0,0,1-1.933,1.487A1.886,1.886,0,0,1,79.5,52.043Z" transform="translate(-79.2 -45.5)" fill="#fff"/>
        </g>
      </g>
      <g id="Group_91" data-name="Group 91" transform="translate(52.788 34.796)">
        <g id="Group_88" data-name="Group 88">
          <path id="Path_30" data-name="Path 30" d="M37.5,41.3V24.5h4.164l4.164,6.543L49.991,24.5h4.164V41.3H50.139V31.043l-4.164,6.245-4.164-6.245V41.3Z" transform="translate(-37.5 -24.5)" fill="#fff"/>
        </g>
        <g id="Group_89" data-name="Group 89" transform="translate(18.141)">
          <path id="Path_31" data-name="Path 31" d="M49.7,41.3l6.84-16.8H60.7l6.84,16.8h-4.61L61.6,37.734H55.5L54.161,41.3Zm7.286-6.989h3.42l-1.784-4.461Z" transform="translate(-49.7 -24.5)" fill="#fff"/>
        </g>
        <g id="Group_90" data-name="Group 90" transform="translate(37.472)">
          <path id="Path_32" data-name="Path 32" d="M62.7,41.3V24.5h7.435A6.482,6.482,0,0,1,74.6,25.987a5.387,5.387,0,0,1,0,7.732,6.007,6.007,0,0,1-4.461,1.487H67.012v6.245H62.7Zm4.312-9.814h2.825c1.19,0,2.082-.595,2.082-1.636s-.743-1.636-2.082-1.636H67.012Z" transform="translate(-62.7 -24.5)" fill="#fff"/>
        </g>
      </g>
    </g>
  </g>
</svg>
