<svg xmlns="http://www.w3.org/2000/svg" width="153.298" height="35" viewBox="0 0 153.298 35">
  <g id="Group_2989" data-name="Group 2989" transform="translate(-78 -294)">
    <g id="ET_LOGO" data-name="ET LOGO" transform="translate(78 294)">
      <path id="Subtraction_8" data-name="Subtraction 8" d="M5.109,27.336H0V0H3.988a1.1,1.1,0,0,0,.329.787,1.118,1.118,0,0,0,.793.326V2.226a1.113,1.113,0,1,0,0,2.226v.495a1.113,1.113,0,1,0,0,2.226v.495a1.113,1.113,0,1,0,0,2.226v.495a1.113,1.113,0,1,0,0,2.226v.742a1.113,1.113,0,1,0,0,2.226v.495a1.113,1.113,0,1,0,0,2.226V18.8a1.113,1.113,0,1,0,0,2.226v.495a1.113,1.113,0,1,0,0,2.226v3.587Z" transform="translate(27.094 27.336) rotate(180)" fill="#fff"/>
      <path id="Path_92431" data-name="Path 92431" d="M13.414-76.84,8.356-57.489H4.908L-.15-76.84H3.988L6.594-64.474H6.67L9.276-76.84ZM26.059-65.7h-7.74v2.634a1.865,1.865,0,0,0,.517,1.412,1.936,1.936,0,0,0,1.4.5A1.542,1.542,0,0,0,21.71-61.8a3.481,3.481,0,0,0,.441-1.3h3.908a5.561,5.561,0,0,1-1.571,4.122,5.5,5.5,0,0,1-1.839,1.26,6.092,6.092,0,0,1-2.414.458,6.007,6.007,0,0,1-3.123-.763,5.271,5.271,0,0,1-1.973-2.023,5.266,5.266,0,0,1-.575-1.756,14.3,14.3,0,0,1-.153-2.176v-6.374a14.3,14.3,0,0,1,.153-2.176,5.266,5.266,0,0,1,.575-1.756,5.271,5.271,0,0,1,1.973-2.023,6.008,6.008,0,0,1,3.123-.763,6.233,6.233,0,0,1,2.433.458,5.452,5.452,0,0,1,1.858,1.26,6.237,6.237,0,0,1,1.533,4.313Zm-7.74-3.053H22.15v-2.214a2.354,2.354,0,0,0-.517-1.66,1.822,1.822,0,0,0-1.4-.553,1.822,1.822,0,0,0-1.4.553,2.354,2.354,0,0,0-.517,1.66Zm10.614,11.26V-76.84h3.908v2.061a11.858,11.858,0,0,1,2.337-1.679,5.987,5.987,0,0,1,2.835-.611v4.122a3.181,3.181,0,0,0-1.188-.229,4.671,4.671,0,0,0-1.322.21,3.441,3.441,0,0,0-1.284.706,3.676,3.676,0,0,0-1,1.3,4.586,4.586,0,0,0-.383,1.985v11.489ZM38.627-76.84h4.138l2.682,12.061h.077L48.168-76.84h4.023L46.6-54.13a6.618,6.618,0,0,1-.862,2.137,5.324,5.324,0,0,1-1.284,1.374,4.476,4.476,0,0,1-1.552.744,6.878,6.878,0,0,1-1.705.21H40.121v-3.664H41a2.927,2.927,0,0,0,1-.153,1.608,1.608,0,0,0,.766-.687,6.7,6.7,0,0,0,.575-1.508q.268-.973.613-2.691Zm13.181,0Z" transform="translate(35.93 84.665)" fill="#fff"/>
      <path id="Path_92430" data-name="Path 92430" d="M7.2-79.464V-106.8H18.952v3.686H11.143v8.024h6.8V-91.4h-6.8v8.024h7.809v3.916Z" transform="translate(16.062 106.8)" fill="#fff"/>
      <g id="Group_2972" data-name="Group 2972" transform="translate(0 0.834)">
        <path id="Subtraction_4" data-name="Subtraction 4" d="M14.266,27.415H3.845a4.227,4.227,0,0,0-.313-1.547,4.039,4.039,0,0,0-.814-1.262,3.764,3.764,0,0,0-1.2-.849,3.561,3.561,0,0,0-1.46-.311H0V4.093H.062a3.561,3.561,0,0,0,1.473-.317,3.767,3.767,0,0,0,1.2-.864,4.042,4.042,0,0,0,.811-1.281,4.234,4.234,0,0,0,.3-1.569c0-.02,0-.041,0-.062H14.266a1.109,1.109,0,0,0,.327.789,1.109,1.109,0,0,0,.789.327V2.605a1.116,1.116,0,1,0,0,2.233v.62a1.116,1.116,0,1,0,0,2.233v.62a1.116,1.116,0,1,0,0,2.233v.62a1.116,1.116,0,1,0,0,2.233v.62a1.116,1.116,0,1,0,0,2.233v.62a1.116,1.116,0,1,0,0,2.233v.62a1.116,1.116,0,1,0,0,2.233v.62a1.116,1.116,0,0,0,0,2.233V26.3a1.118,1.118,0,0,0-1.116,1.116Z" transform="matrix(0.966, -0.259, 0.259, 0.966, 0, 3.981)" fill="#d50355"/>
        <rect id="Rectangle_503" data-name="Rectangle 503" width="6.131" height="23.192" transform="matrix(0.966, -0.259, 0.259, 0.966, 6.299, 4.646)" fill="#0d1e34" opacity="0.1"/>
        <rect id="Rectangle_509" data-name="Rectangle 509" width="0.932" height="17.061" rx="0.466" transform="matrix(0.966, -0.259, 0.259, 0.966, 3.709, 8.496)" fill="#fff"/>
      </g>
      <path id="Path_92432" data-name="Path 92432" d="M203.611-98.976Zm1.571,0v-5.878h3.908v5.878H211.5v3.053H209.09V-85.2a3.353,3.353,0,0,0,.134,1.069,1.062,1.062,0,0,0,.441.573,1.666,1.666,0,0,0,.747.229q.441.038,1.092.038v3.664H209.9a5.3,5.3,0,0,1-2.242-.42,4.041,4.041,0,0,1-1.437-1.069,4.193,4.193,0,0,1-.786-1.469,5.445,5.445,0,0,1-.249-1.584V-95.922h-1.954v-3.053ZM213-79.624V-98.976h3.908v19.351Zm0-23.282V-106.8h3.908v3.893ZM224.264-85.2a1.865,1.865,0,0,0,.517,1.412,1.936,1.936,0,0,0,1.4.5,1.542,1.542,0,0,0,1.475-.649,3.481,3.481,0,0,0,.441-1.3H232a5.561,5.561,0,0,1-1.571,4.122,5.5,5.5,0,0,1-1.839,1.26,6.092,6.092,0,0,1-2.414.458,6.008,6.008,0,0,1-3.123-.763,5.271,5.271,0,0,1-1.973-2.023,5.266,5.266,0,0,1-.575-1.756,14.3,14.3,0,0,1-.153-2.176v-6.374a14.3,14.3,0,0,1,.153-2.176,5.266,5.266,0,0,1,.575-1.756,5.271,5.271,0,0,1,1.973-2.023,6.007,6.007,0,0,1,3.123-.763,6.233,6.233,0,0,1,2.433.458,5.452,5.452,0,0,1,1.858,1.26A6.455,6.455,0,0,1,232-93.021H228.1a2.479,2.479,0,0,0-.517-1.737,1.822,1.822,0,0,0-1.4-.553,1.822,1.822,0,0,0-1.4.553,2.354,2.354,0,0,0-.517,1.66Zm9.579,5.573V-106.8h3.908v16.26h.077l4.713-8.435h3.908l-4.636,7.863,5.594,11.489h-4.253l-3.525-8.359-1.878,2.939v5.42Zm25.749-8.206h-7.74V-85.2a1.865,1.865,0,0,0,.517,1.412,1.936,1.936,0,0,0,1.4.5,1.542,1.542,0,0,0,1.475-.649,3.481,3.481,0,0,0,.441-1.3h3.908a5.561,5.561,0,0,1-1.571,4.122,5.5,5.5,0,0,1-1.839,1.26,6.092,6.092,0,0,1-2.414.458,6.008,6.008,0,0,1-3.123-.763,5.271,5.271,0,0,1-1.973-2.023,5.266,5.266,0,0,1-.575-1.756,14.3,14.3,0,0,1-.153-2.176v-6.374a14.3,14.3,0,0,1,.153-2.176,5.267,5.267,0,0,1,.575-1.756,5.271,5.271,0,0,1,1.973-2.023,6.007,6.007,0,0,1,3.123-.763,6.233,6.233,0,0,1,2.433.458,5.452,5.452,0,0,1,1.858,1.26,6.237,6.237,0,0,1,1.533,4.313Zm-7.74-3.053h3.832V-93.1a2.354,2.354,0,0,0-.517-1.66,1.822,1.822,0,0,0-1.4-.553,1.822,1.822,0,0,0-1.4.553,2.354,2.354,0,0,0-.517,1.66Zm10.614-8.092v-5.878h3.908v5.878h2.414v3.053h-2.414V-85.2a3.352,3.352,0,0,0,.134,1.069,1.062,1.062,0,0,0,.441.573,1.666,1.666,0,0,0,.747.229q.441.038,1.092.038v3.664h-1.609a5.3,5.3,0,0,1-2.242-.42,4.041,4.041,0,0,1-1.437-1.069,4.192,4.192,0,0,1-.786-1.469,5.444,5.444,0,0,1-.249-1.584V-95.922h-1.954v-3.053Z" transform="translate(-115.49 106.8)" fill="#d50355"/>
    </g>
  </g>
</svg>